<svg xmlns="http://www.w3.org/2000/svg" xmlns:xlink="http://www.w3.org/1999/xlink" width="800" zoomAndPan="magnify" viewBox="0 0 600 599.999999" height="800" preserveAspectRatio="xMidYMid meet" version="1.0"><defs><g/><clipPath id="id1"><path d="M 94.753906 94.753906 L 504.917969 94.753906 L 504.917969 504.917969 L 94.753906 504.917969 Z M 94.753906 94.753906 " clip-rule="nonzero"/></clipPath></defs><g clip-path="url(#id1)"><path fill="#f0f9ff" d="M 299.835938 504.917969 C 245.082031 504.917969 193.523438 483.609375 154.835938 444.835938 C 116.0625 406.148438 94.753906 354.589844 94.753906 299.835938 C 94.753906 245.082031 116.0625 193.523438 154.835938 154.835938 C 193.523438 116.0625 245.082031 94.753906 299.835938 94.753906 C 354.589844 94.753906 406.148438 116.0625 444.835938 154.835938 C 483.605469 193.605469 504.917969 245.082031 504.917969 299.835938 C 504.917969 354.589844 483.605469 406.148438 444.835938 444.835938 C 406.148438 483.609375 354.589844 504.917969 299.835938 504.917969 Z M 299.835938 107.046875 C 248.359375 107.046875 199.917969 127.128906 163.523438 163.523438 C 127.128906 199.917969 107.046875 248.359375 107.046875 299.835938 C 107.046875 351.3125 127.128906 399.753906 163.523438 436.148438 C 199.917969 472.542969 248.359375 492.625 299.835938 492.625 C 351.3125 492.625 399.753906 472.542969 436.148438 436.148438 C 472.542969 399.753906 492.625 351.3125 492.625 299.835938 C 492.625 248.359375 472.542969 199.917969 436.148438 163.523438 C 399.753906 127.128906 351.3125 107.046875 299.835938 107.046875 Z M 299.835938 107.046875 " fill-opacity="1" fill-rule="nonzero"/></g><g fill="#f0f9ff" fill-opacity="1"><g transform="translate(141.475823, 381.539315)"><g><path d="M 97.253906 -22.667969 C 63.128906 -23.398438 40.949219 -54.84375 40.949219 -85.308594 C 40.949219 -116.019531 63.375 -146.976562 97.253906 -147.953125 L 97.253906 -173.789062 C 48.503906 -172.570312 11.210938 -132.351562 11.210938 -85.308594 C 11.210938 -38.265625 48.261719 1.949219 97.253906 3.167969 Z M 151.121094 -41.679688 C 149.65625 -43.140625 148.4375 -44.117188 147.21875 -44.117188 C 146.246094 -44.117188 145.027344 -43.386719 143.808594 -42.167969 C 133.328125 -30.957031 118.703125 -23.398438 101.398438 -22.667969 L 101.398438 3.167969 C 124.308594 2.4375 147.707031 -7.3125 162.578125 -21.9375 C 165.5 -24.863281 165.011719 -26.324219 162.332031 -29.492188 Z M 162.578125 -148.683594 C 147.953125 -163.308594 124.066406 -173.058594 101.398438 -173.789062 L 101.398438 -147.953125 C 118.457031 -147.464844 133.328125 -139.664062 143.5625 -128.695312 C 145.027344 -127.234375 146 -126.746094 146.976562 -126.746094 C 148.195312 -126.746094 149.414062 -127.722656 150.875 -129.183594 L 162.089844 -141.371094 C 164.769531 -144.296875 165.257812 -146 162.578125 -148.683594 Z M 162.578125 -148.683594 "/></g></g></g><g fill="#f0f9ff" fill-opacity="1"><g transform="translate(315.020161, 381.539315)"><g><path d="M 50.699219 -165.5 C 50.699219 -169.402344 49.480469 -170.621094 45.578125 -170.621094 L 26.324219 -170.621094 C 22.425781 -170.621094 21.207031 -169.402344 21.207031 -165.5 L 21.207031 -5.117188 C 21.207031 -1.21875 22.425781 0 26.324219 0 L 50.699219 0 Z M 126.257812 0 C 130.160156 0 131.378906 -1.21875 131.378906 -5.117188 L 131.378906 -19.988281 C 131.378906 -24.128906 130.160156 -25.105469 126.257812 -25.105469 L 54.84375 -25.105469 L 54.84375 0 Z M 126.257812 0 "/></g></g></g></svg>